<svg xmlns="http://www.w3.org/2000/svg" viewBox="0 0 185.23 77.87"><defs><style>.cls-1{fill:#008251;}.cls-2{fill:#ff0606;}.cls-3{fill:#048050;}</style></defs><title>Asset 1</title><g id="Layer_2" data-name="Layer 2"><g id="Layer_1-2" data-name="Layer 1"><path class="cls-1" d="M91.09,0C48.32,0,13.65,11.71,13.65,26.16S48.32,52.32,91.09,52.32s77.45-11.71,77.45-26.16S133.87,0,91.09,0ZM78.54,39.25H68L59.81,27.1V39.25H51v-28h8.79V23.06l8.24-11.84H78.54L68.17,24.84Zm29.26,0H99l-9.3-14.09V39.25H80.92v-28h8.79L99,25.55V11.22h8.79Zm23.52-9.94q0,5-2.63,7.62a10.09,10.09,0,0,1-7.39,2.6,11.41,11.41,0,0,1-8.11-2.81q-3-2.82-3-8.2h8.67a3.92,3.92,0,0,0,.55,2.4,1.83,1.83,0,0,0,1.51.69,1.52,1.52,0,0,0,1.23-.52,2.78,2.78,0,0,0,.43-1.78V11.22h8.75Z"/><path class="cls-2" d="M10.87,63.24a4.61,4.61,0,0,1-2.44,1,7.41,7.41,0,0,1-3.38-.41A8.81,8.81,0,0,1,2,62.18,5.8,5.8,0,0,1,.27,59.74,4.64,4.64,0,0,1,.16,57l3,1.07a3,3,0,0,0,.36,2.15,3.58,3.58,0,0,0,2.07,1.54,3.08,3.08,0,0,0,2.24,0,2.24,2.24,0,0,0,1.25-1.43,2.12,2.12,0,0,0-.06-1.61,3.92,3.92,0,0,0-1-1.31C7.61,57,7,56.54,6.19,56a21.37,21.37,0,0,1-2.31-1.87,4.93,4.93,0,0,1-1.22-2,4,4,0,0,1,.15-2.64,4.23,4.23,0,0,1,1.49-2,4.58,4.58,0,0,1,2.44-.85,7.77,7.77,0,0,1,3,.43,7,7,0,0,1,3.7,2.54,4.78,4.78,0,0,1,.77,3.69l-3-.94a2.93,2.93,0,0,0-.39-1.88,3.18,3.18,0,0,0-1.79-1.32A3.13,3.13,0,0,0,7,49,2.11,2.11,0,0,0,5.78,50.4a2.07,2.07,0,0,0,0,1.53,3.45,3.45,0,0,0,.94,1.27,20.53,20.53,0,0,0,1.79,1.41,25.78,25.78,0,0,1,2.38,1.85,5.18,5.18,0,0,1,1.32,2,4.19,4.19,0,0,1,0,2.73,4.31,4.31,0,0,1-1.32,2"/><path class="cls-2" d="M28.27,57.23a5.88,5.88,0,0,1,1.62,2.84,7.74,7.74,0,0,1-.05,3.73,7.58,7.58,0,0,1-1.66,3.37,5.76,5.76,0,0,1-2.84,1.74,6.65,6.65,0,0,1-3.51,0,6.09,6.09,0,0,1-3.06-1.75,4.75,4.75,0,0,1-1.24-2.82L15,73.39l-3-.87q2.81-9.45,5.6-18.89c1.11.33,1.66.49,2.77.8-.34,1.2-.51,1.79-.84,3A4.78,4.78,0,0,1,22,55.64a5.84,5.84,0,0,1,3.37,0,6.68,6.68,0,0,1,2.95,1.61m-6.7.46a3.83,3.83,0,0,0-1.9,1.08,4.6,4.6,0,0,0-1.18,2.07,4.35,4.35,0,0,0-.08,2.39,4,4,0,0,0,1.1,1.91,4.6,4.6,0,0,0,2,1.12,4.36,4.36,0,0,0,3.4-.33,4.25,4.25,0,0,0,2-2.84,4.43,4.43,0,0,0-.36-3.42,4.27,4.27,0,0,0-2.73-1.93,4.35,4.35,0,0,0-2.26-.05"/><path class="cls-2" d="M45.41,67.6q-5.41-1-10.79-2.13a4,4,0,0,0,.56,3.24,4.17,4.17,0,0,0,2.6,1.56,4.31,4.31,0,0,0,2.62-.2A2.87,2.87,0,0,0,42,68.48l3.13.57a5.36,5.36,0,0,1-1.63,2.24,6,6,0,0,1-2.67,1.25,8.17,8.17,0,0,1-3.37,0A8,8,0,0,1,34,70.93a6,6,0,0,1-2-2.87,7,7,0,0,1-.08-3.77,7.2,7.2,0,0,1,1.69-3.35,6.24,6.24,0,0,1,2.91-1.79,7.8,7.8,0,0,1,3.67-.07,7.58,7.58,0,0,1,3.35,1.49,5.8,5.8,0,0,1,1.92,2.62,6.17,6.17,0,0,1,.27,3.26,5.94,5.94,0,0,1-.31,1.15m-2.66-4A3.33,3.33,0,0,0,41.6,62a4.87,4.87,0,0,0-1.86-.8,4.35,4.35,0,0,0-3,.39,4.06,4.06,0,0,0-1.85,2.6c2.63.58,5.28,1.12,7.92,1.61a3.82,3.82,0,0,0-.06-2.24"/><path class="cls-2" d="M59.87,63.69a5.93,5.93,0,0,1,1.76,4c-1.24-.14-1.85-.21-3.08-.37a3.15,3.15,0,0,0-1-2.12,4.09,4.09,0,0,0-2.33-1,3.85,3.85,0,0,0-2.93.7,4.54,4.54,0,0,0-1.63,3.1,4.45,4.45,0,0,0,.63,3.46A3.88,3.88,0,0,0,54,72.91a4.1,4.1,0,0,0,2.6-.37,3.09,3.09,0,0,0,1.51-1.81c1.25.16,1.88.24,3.12.38a5.76,5.76,0,0,1-2.7,3.43,7.36,7.36,0,0,1-4.81.76,7.92,7.92,0,0,1-3.58-1.37A5.92,5.92,0,0,1,48,71.19a7,7,0,0,1-.3-3.76A7.24,7.24,0,0,1,49.18,64,6.1,6.1,0,0,1,52,62a7.72,7.72,0,0,1,3.65-.29,7.21,7.21,0,0,1,4.24,1.95"/><path class="cls-2" d="M67.8,63.35,66.54,76.64c-1.2-.11-1.8-.17-3-.3L65,63.06l2.85.29"/><path class="cls-2" d="M80,65a4.91,4.91,0,0,1,1.79,2.45c0-1.24.07-1.86.13-3.1l2.86.11q-.21,6.66-.41,13.34c-1.2,0-1.8,0-3-.1.05-1.24.07-1.86.13-3.1a4.83,4.83,0,0,1-2.08,2.28,6,6,0,0,1-3.42.71,6.64,6.64,0,0,1-3.32-1A5.69,5.69,0,0,1,70.52,74,7.53,7.53,0,0,1,70,70.24a7.75,7.75,0,0,1,1.11-3.56,5.87,5.87,0,0,1,2.42-2.2,6.4,6.4,0,0,1,3.28-.6A5.73,5.73,0,0,1,80,65m-5.59,2.38A4.44,4.44,0,0,0,73,70.47a4.34,4.34,0,0,0,1,3.31,4.23,4.23,0,0,0,3.1,1.37,4.5,4.5,0,0,0,2.27-.42A3.94,3.94,0,0,0,81,73.26a4.57,4.57,0,0,0,.66-2.3,4.66,4.66,0,0,0-.46-2.33A4,4,0,0,0,79.7,67a4.29,4.29,0,0,0-2.15-.66,4.19,4.19,0,0,0-3.16,1"/><path class="cls-2" d="M91.09,59.94q0,9-.11,17.93c-1.2,0-1.81,0-3,0q.15-9,.31-17.93l2.81,0"/><path class="cls-2" d="M112.22,75a4.55,4.55,0,0,1-1.88,1.86,7.37,7.37,0,0,1-3.26.84,8.53,8.53,0,0,1-3.42-.46,5.69,5.69,0,0,1-2.45-1.65A4.6,4.6,0,0,1,100.12,73l3.16-.1a2.92,2.92,0,0,0,1.1,1.87,3.5,3.5,0,0,0,2.46.69,3,3,0,0,0,2.07-.8,2.2,2.2,0,0,0,.63-1.78,2.13,2.13,0,0,0-.63-1.48,3.8,3.8,0,0,0-1.39-.86q-.83-.3-2.22-.66a19.25,19.25,0,0,1-2.8-.91,4.69,4.69,0,0,1-1.84-1.42,4.08,4.08,0,0,1-.81-2.52,4.27,4.27,0,0,1,.64-2.44,4.55,4.55,0,0,1,1.93-1.68,7.49,7.49,0,0,1,3-.69,6.78,6.78,0,0,1,4.32,1,4.79,4.79,0,0,1,2,3.17c-1.23.09-1.85.13-3.09.2a2.9,2.9,0,0,0-1-1.6,3.05,3.05,0,0,0-2.12-.58,3,3,0,0,0-1.9.68,2.06,2.06,0,0,0-.66,1.73,2.1,2.1,0,0,0,.56,1.43,3.56,3.56,0,0,0,1.32.84,22.11,22.11,0,0,0,2.16.66,22.24,22.24,0,0,1,2.85.86A5.19,5.19,0,0,1,111.75,70a4.25,4.25,0,0,1,1,2.56,4.48,4.48,0,0,1-.48,2.38"/><path class="cls-2" d="M124.91,63.23a6.16,6.16,0,0,1,2.81,2,7.07,7.07,0,0,1,1.4,3.48,6.93,6.93,0,0,1-.45,3.75,6,6,0,0,1-2.3,2.69,8.39,8.39,0,0,1-3.69,1.25,8.27,8.27,0,0,1-3.85-.44A6.11,6.11,0,0,1,116,73.86a7.48,7.48,0,0,1-.61-7.26A6.22,6.22,0,0,1,117.7,64a8,8,0,0,1,3.51-1.19,8.1,8.1,0,0,1,3.7.41m-5.44,2.67a3.71,3.71,0,0,0-1.36,1.63,4.91,4.91,0,0,0-.35,2.51,4.83,4.83,0,0,0,.81,2.41,3.73,3.73,0,0,0,1.69,1.32,4.72,4.72,0,0,0,2.16.26,4.58,4.58,0,0,0,2.06-.72,3.7,3.7,0,0,0,1.36-1.65,4.79,4.79,0,0,0,.28-2.53,4.93,4.93,0,0,0-.87-2.37,3.7,3.7,0,0,0-1.68-1.3,4.48,4.48,0,0,0-2.1-.25,4.55,4.55,0,0,0-2,.69"/><path class="cls-2" d="M142.14,60.55a5.86,5.86,0,0,1,2.66,1.9,7.69,7.69,0,0,1,1.52,3.41,7.47,7.47,0,0,1-.1,3.75,5.76,5.76,0,0,1-1.84,2.78,6.84,6.84,0,0,1-3.2,1.42,6,6,0,0,1-3.49-.32,4.7,4.7,0,0,1-2.29-2c.19,1.22.28,1.83.48,3.06-1.2.19-1.79.28-3,.45l-2.58-17.75c1.11-.16,1.67-.24,2.79-.42q.59,3.8,1.19,7.59a4.74,4.74,0,0,1,1.48-2.64,5.8,5.8,0,0,1,3-1.43,6.56,6.56,0,0,1,3.34.23m-5.86,3.22A4,4,0,0,0,135,65.54a4.81,4.81,0,0,0-.2,2.38,4.66,4.66,0,0,0,.93,2.21,4,4,0,0,0,1.79,1.26,4.61,4.61,0,0,0,2.32.17,4.32,4.32,0,0,0,2.94-1.73,4.25,4.25,0,0,0,.58-3.4,4.42,4.42,0,0,0-1.75-3,4.26,4.26,0,0,0-3.27-.62,4.39,4.39,0,0,0-2.07.91"/><path class="cls-2" d="M157.64,57.13a6.32,6.32,0,0,1,3.06,1.67,7,7,0,0,1,1.83,3.28,6.84,6.84,0,0,1,0,3.78,6,6,0,0,1-2,3,8.29,8.29,0,0,1-3.52,1.71,8.14,8.14,0,0,1-3.89,0,6.09,6.09,0,0,1-3.09-1.77,6.73,6.73,0,0,1-1.68-3.37,6.84,6.84,0,0,1,.17-3.75,6.28,6.28,0,0,1,2-2.86,8,8,0,0,1,3.35-1.62,8.32,8.32,0,0,1,3.74-.07m-5.09,3.35a3.71,3.71,0,0,0-1.16,1.79,4.85,4.85,0,0,0,0,2.52,4.69,4.69,0,0,0,1.11,2.29,3.69,3.69,0,0,0,1.85,1.1,4.72,4.72,0,0,0,2.18,0,4.6,4.6,0,0,0,2-1,3.6,3.6,0,0,0,1.16-1.81,4.77,4.77,0,0,0,0-2.54,4.88,4.88,0,0,0-1.17-2.24,3.68,3.68,0,0,0-1.84-1.08,4.68,4.68,0,0,0-4,1"/><path class="cls-2" d="M165,49.72q2.49,8.61,5,17.23c-1.16.34-1.75.5-2.92.83q-2.4-8.66-4.79-17.29l2.74-.77"/><path class="cls-2" d="M179.44,50.64A6.2,6.2,0,0,1,182.65,52a6.93,6.93,0,0,1,2.1,3.11,6.77,6.77,0,0,1,.35,3.76A6.15,6.15,0,0,1,183.37,62a9.06,9.06,0,0,1-7.28,2.4,6.14,6.14,0,0,1-3.24-1.49,6.85,6.85,0,0,1-2-3.22,7,7,0,0,1-.15-3.75,6.37,6.37,0,0,1,1.75-3,8.8,8.8,0,0,1,7-2.29m-4.82,3.77a3.69,3.69,0,0,0-1,1.89,4.84,4.84,0,0,0,.18,2.52A4.65,4.65,0,0,0,175.1,61a3.56,3.56,0,0,0,1.94.93,4.88,4.88,0,0,0,4.07-1.34,3.66,3.66,0,0,0,1-1.91,4.71,4.71,0,0,0-.25-2.52A4.85,4.85,0,0,0,180.51,54a3.67,3.67,0,0,0-1.93-.91,4.47,4.47,0,0,0-2.13.2,4.61,4.61,0,0,0-1.83,1.1"/><path class="cls-3" d="M68.42,61.4a13.19,13.19,0,0,1-2.43-1,13,13,0,0,0,3.3-.63v0c.63.76,2.79.59,2.79.59a6.63,6.63,0,0,1-2.35-.77c.48-.17,1-.36,1.53-.59h0c.46.42,1.8.12,1.8.12a4.14,4.14,0,0,1-1.49-.26,29.38,29.38,0,0,0,2.79-1.46s-.76.34-1.87.77a3.34,3.34,0,0,1,.73-1.05s-1,.62-1,1.15h0c-.59.23-1.27.47-2,.7a4.93,4.93,0,0,1,1-1.51s-1.37.87-1.4,1.62h0c-.66.2-1.33.39-2,.53a6.5,6.5,0,0,1,1.41-2s-1.8,1.14-1.86,2.13a10,10,0,0,1-1.79.2c.23-1,1.3-4.43,4.94-3.55,4.22,1,5.3-.23,5.3-.23a9.85,9.85,0,0,1-1.53,3.13,5.36,5.36,0,0,1-6,2.1"/></g></g></svg>